PathFileType	4	(X/Y/Z)	C:\Users\Basilio\Documents\Thesis Gigler\squatting_fais\c3dfiles\039\SLS_pre_front4\markers_experimental.trc
DataRate	CameraRate	NumFrames	NumMarkers	Units	OrigDataRate	OrigDataStartFrame	OrigNumFrames
200.000000	200.000000	4	63	mm	200.000000	1749	1999
Frame#	Time	FHD			LBHD			RBHD			C7			T10			CLAV			LSHO			LUUPA			LMUPA			LDUPA			LLEP			LMEP			LRAD			LUL			LRFIN			RSHO			RUPA1			RMUPA			RDUPA			RLEP			RMEP			RRAD			RUL			RUFIN			LASI			RASI			USACR			LSACR			RSACR			LTHI1			LTHI2			LTHI3			LTHI4			LLFC			LMFC			LTIB1			LTIB2			LTIB3			LTIB4			LLMAL			LMMAL			LHEE			LMT1			LMT2			LMT5			RTHI			RTHI2			RTHI3			RTHI4			RLFC			RMFC			RTIB1			RTIB2			RTIB3			RTIB4			RLMAL			RMMAL			RHEE			RMT1			RMT2			RMT5			*61			*62			
		X1	Y1	Z1	X2	Y2	Z2	X3	Y3	Z3	X4	Y4	Z4	X5	Y5	Z5	X6	Y6	Z6	X7	Y7	Z7	X8	Y8	Z8	X9	Y9	Z9	X10	Y10	Z10	X11	Y11	Z11	X12	Y12	Z12	X13	Y13	Z13	X14	Y14	Z14	X15	Y15	Z15	X16	Y16	Z16	X17	Y17	Z17	X18	Y18	Z18	X19	Y19	Z19	X20	Y20	Z20	X21	Y21	Z21	X22	Y22	Z22	X23	Y23	Z23	X24	Y24	Z24	X25	Y25	Z25	X26	Y26	Z26	X27	Y27	Z27	X28	Y28	Z28	X29	Y29	Z29	X30	Y30	Z30	X31	Y31	Z31	X32	Y32	Z32	X33	Y33	Z33	X34	Y34	Z34	X35	Y35	Z35	X36	Y36	Z36	X37	Y37	Z37	X38	Y38	Z38	X39	Y39	Z39	X40	Y40	Z40	X41	Y41	Z41	X42	Y42	Z42	X43	Y43	Z43	X44	Y44	Z44	X45	Y45	Z45	X46	Y46	Z46	X47	Y47	Z47	X48	Y48	Z48	X49	Y49	Z49	X50	Y50	Z50	X51	Y51	Z51	X52	Y52	Z52	X53	Y53	Z53	X54	Y54	Z54	X55	Y55	Z55	X56	Y56	Z56	X57	Y57	Z57	X58	Y58	Z58	X59	Y59	Z59	X60	Y60	Z60	X61	Y61	Z61	X62	Y62	Z62	X63	Y63	Z63	

1750	8.745000000000001	-414.5052795410157	1565.5078125	-598.0790405273439	-574.2531738281251	1632.925415039063	-704.2313842773439	-536.0358886718751	1613.875122070313	-568.4833374023439	-687.8027343750001	1486.157958984375	-656.9837036132814	-782.3494873046877	1182.829833984375	-673.4495239257814	-563.4680786132814	1381.540771484375	-681.9013061523439	-635.8083496093751	1462.028442382813	-848.6277465820315	-628.7027587890626	1306.4736328125	-1013.870666503906	-580.7345581054689	1318.296264648438	-1018.419860839844	-585.1282348632814	1270.600830078125	-1054.758544921875	-531.1970825195314	1238.250244140625	-1087.348999023438	-551.9031372070314	1169.688720703125	-1036.2900390625	-282.5046691894532	1179.460693359375	-942.5051879882815	-263.9494628906251	1158.562377929688	-1012.708557128906	-202.2869720458985	1176.59130859375	-910.0153808593752	-594.9666137695314	1407.7392578125	-480.4718322753907	-754.0313720703126	1231.27734375	-428.1666564941407	-722.9003295898439	1196.578369140625	-412.3601989746095	-772.8257446289065	1165.118896484375	-427.2727355957032	-784.6290283203127	1106.969116210938	-418.4180603027345	-777.3709106445315	1087.992553710938	-495.2027282714845	-771.0403442382815	816.621520996094	-347.4167175292969	-844.3719482421877	836.1437988281252	-347.3022460937501	-794.8869628906252	741.5408935546876	-297.6677551269532	-689.5426635742189	977.0262451171877	-824.5142211914065	-608.9806518554689	986.2631835937502	-613.5430908203126	-813.4541015625002	1043.05419921875	-657.1612548828126	-827.7276000976565	1009.384765625	-679.5646972656251	-807.109802246094	1012.968078613281	-624.0755615234376	-792.1989746093752	686.4500122070314	-830.2772216796877	-766.0186157226564	606.1344604492189	-838.9856567382815	-724.2131347656251	606.9888305664064	-856.4249267578127	-787.9772949218752	556.4758300781251	-809.908630371094	-792.950134277344	442.5133056640626	-783.209655761719	-706.7523193359376	418.1955566406251	-702.9196166992189	-807.7066040039065	298.7337036132813	-725.1402587890626	-892.4018554687502	310.4229431152344	-707.8211669921876	-862.137390136719	282.3553771972657	-710.9141235351564	-878.0222167968752	232.0025482177735	-638.2941284179689	-1025.10009765625	159.9673767089844	-551.7463989257814	-957.8008422851565	153.4927215576172	-494.6334228515626	-1068.43017578125	144.6313934326172	-459.7116088867189	-904.4253540039065	45.78516006469727	-593.0879516601564	-934.9291992187502	50.77811431884767	-622.6204223632814	-1005.416381835938	51.32057952880861	-626.5689086914064	-522.2510375976564	754.1325073242189	-534.6711425781251	-457.6903686523439	735.3455810546876	-540.0662841796876	-435.4271850585939	756.6878662109376	-554.4134521484376	-433.6827087402345	653.9954223632814	-556.5322265625001	-398.0882873535157	532.9434814453126	-603.0540771484376	-371.0525817871094	550.9482421875001	-713.7456665039064	-333.1036071777344	341.3392333984376	-658.1092529296876	-406.6350097656251	265.1941223144532	-669.4146118164064	-359.6261596679688	261.3974304199219	-666.0895385742189	-334.0874938964844	224.7201385498047	-706.4810180664064	-389.1758422851564	121.3696899414063	-706.6963500976564	-358.6773681640626	154.334701538086	-785.4968261718752	-454.1447753906251	107.9927520751953	-769.2088012695315	-229.2961120605469	61.31440734863283	-774.5108642578127	-233.8255310058594	60.00589752197267	-728.5556640625001	-290.7818908691407	39.33924102783204	-680.6121215820314	nan	nan	nan	nan	nan	nan	
1751	8.75	-415.1863403320314	1565.643188476563	-597.4341430664064	-575.5306396484376	1633.152954101563	-703.3587036132814	-537.0044555664064	1613.994750976563	-567.4530029296876	-688.4299926757814	1486.37890625	-656.5086059570314	-783.5103149414065	1183.225463867188	-673.7241210937501	-564.4291992187501	1381.209594726563	-681.2626342773439	-636.6047363281251	1462.52587890625	-848.0664062500002	-630.2135009765626	1307.721313476563	-1014.069396972656	-582.1513061523439	1319.58447265625	-1018.595764160156	-586.8299560546876	1271.997802734375	-1055.1162109375	-533.0379638671876	1239.5703125	-1087.965087890625	-554.0578613281251	1170.901733398438	-1037.142578125	-284.3827514648438	1179.005126953125	-943.2451171875002	-266.4345703125001	1158.948608398438	-1013.287658691406	-204.8299560546876	1175.386108398438	-910.232116699219	-595.5629272460939	1407.599609375	-479.9193725585939	-754.8256225585939	1231.212158203125	-428.1544799804689	-723.6002197265626	1196.391235351563	-412.8445739746095	-773.7994384765627	1165.06396484375	-427.9697265625001	-785.7932739257815	1106.923583984375	-419.604217529297	-779.6474609375002	1088.40380859375	-496.9825439453126	-771.146667480469	816.3731079101565	-349.1752319335938	-844.5921020507815	835.439880371094	-349.6811828613282	-794.7263183593752	741.3314819335939	-299.6943664550782	-691.1531372070314	977.1838989257815	-824.8763427734377	-610.2730712890626	986.604187011719	-614.0547485351564	-814.637145996094	1043.270385742188	-657.4132690429689	-828.9774169921877	1009.721008300781	-679.9157714843751	-808.379821777344	1013.311279296875	-624.4451904296876	-793.6444091796877	686.8413696289064	-830.1033325195315	-766.6523437500001	605.8142089843751	-838.6296997070315	-725.3551635742189	607.2481689453126	-856.330017089844	-788.8931884765627	556.5360717773439	-809.591491699219	-793.7500610351565	442.4664001464845	-782.6774902343752	-707.8324584960939	418.4740295410157	-702.2866210937501	-808.458435058594	298.6475830078126	-724.7103271484376	-892.9992675781252	310.4181823730469	-707.2624511718751	-862.8242797851565	282.5050964355469	-710.4912719726564	-878.328552246094	231.966537475586	-637.9189453125001	-1025.223022460938	159.5760650634766	-551.2042846679689	-957.9627075195315	153.1821899414063	-494.2406005859376	-1068.618530273438	143.9920959472657	-459.2018127441407	-904.4717407226565	45.79572296142579	-593.0158081054689	-934.9965820312502	50.75998306274415	-622.5372314453126	-1005.485107421875	51.30400848388673	-626.4105224609376	-523.2513427734376	754.6779174804689	-534.7928466796876	-458.8523254394532	735.8477783203126	-540.3044433593751	-436.5427856445314	757.3824462890626	-554.3504638671876	-435.1109924316407	654.1351318359376	-556.9121704101564	-399.2767333984376	533.2854003906251	-602.8181152343751	-372.0656433105469	551.3574218750001	-713.8039550781251	-333.7069091796876	341.6391296386719	-657.8411254882814	-406.8757629394532	265.3452453613282	-669.2509155273439	-360.0144958496094	261.8007202148438	-665.7142944335939	-334.3527526855469	224.8568420410157	-706.0429687500001	-389.1656494140626	121.3880081176758	-706.2908325195314	-358.4989929199219	154.9064178466797	-784.923034667969	-454.2088012695314	108.2819747924805	-768.8143310546877	-229.2295379638672	61.34914398193361	-774.1634521484377	-233.8044891357422	59.97375106811525	-728.3479614257814	-290.8517150878907	39.16880416870118	-680.3635253906251	nan	nan	nan	nan	nan	nan	
1752	8.755000000000001	-415.7771911621095	1565.702758789063	-596.4171142578126	-576.5922851562501	1633.288452148438	-702.1398315429689	-537.5683593750001	1613.837890625	-566.8596801757814	-689.0106811523439	1486.642333984375	-655.8128662109376	-784.5683593750002	1183.091064453125	-673.7202148437501	-565.3598022460939	1381.558959960938	-680.7852172851564	-637.3913574218751	1463.155639648438	-847.3963012695315	-631.5490722656251	1308.901733398438	-1014.321411132813	-583.5518798828126	1320.777465820313	-1018.668273925781	-588.4372558593751	1273.395629882813	-1055.573486328125	-534.6854248046876	1241.003051757813	-1088.562744140625	-556.0248413085939	1172.123657226563	-1038.048217773438	-286.5388488769532	1178.939331054688	-943.7139282226565	-268.3702087402344	1159.423583984375	-1013.986633300781	-207.0841827392579	1174.622192382813	-910.4714355468752	-596.1319580078126	1407.7177734375	-479.4777221679689	-755.5438842773439	1231.197998046875	-428.2147827148439	-724.3672485351564	1196.038330078125	-413.3014221191407	-774.5222778320315	1165.019897460938	-428.4974975585939	-786.6766357421877	1106.952270507813	-420.7384033203126	-779.1311645507815	1088.68310546875	-497.6695251464845	-770.8801269531252	816.245788574219	-351.0884399414063	-844.5112915039065	834.9024047851565	-351.9489135742188	-794.3311767578127	741.0168457031251	-301.6872558593751	-692.8826293945314	977.4797973632815	-825.3780517578127	-611.3760986328126	987.0931396484377	-614.4448242187501	-815.939636230469	1043.749755859375	-657.7235107421876	-830.2791137695315	1010.132629394531	-680.1828613281251	-809.340270996094	1013.2314453125	-624.5216674804689	-794.5720214843752	686.6295166015626	-830.0776367187502	-768.027526855469	606.2074584960939	-838.5330200195315	-726.5338745117189	607.3933105468751	-856.2825927734377	-789.8186645507815	556.6776733398439	-809.3574829101565	-794.7362060546877	442.7779235839845	-782.4939575195315	-708.6246948242189	418.9168090820314	-702.1038208007814	-809.6092529296877	298.8448486328126	-724.3459472656251	-893.8083496093752	310.6621398925782	-706.9636840820314	-863.6931152343752	282.5548706054688	-710.0638427734376	-878.9268798828127	231.8604583740235	-637.7220458984376	-1025.678955078125	159.1524810791016	-550.8311767578126	-958.1970214843752	152.8966674804688	-493.9854431152345	-1068.735595703125	143.4528503417969	-458.7175598144532	-904.4926757812502	45.87019729614259	-592.9633789062501	-935.0547485351565	51.01287078857423	-622.3990478515626	-1005.509460449219	51.23318481445314	-626.2818603515626	-524.5306396484376	755.0934448242189	-534.9883422851564	-459.8927001953126	736.5363159179689	-540.2283935546876	-437.5064697265626	757.7720336914064	-554.4384765625001	-436.0202941894532	654.4306030273439	-557.1802368164064	-400.3214416503907	533.7534179687501	-602.9082641601564	-372.9537963867188	551.6602783203126	-713.8313598632814	-334.3654479980469	341.9934387207032	-657.5706787109376	-407.2251586914064	265.5693054199219	-669.0197753906251	-360.3972778320313	262.2122802734376	-665.2703857421876	-334.9390869140626	225.3150329589844	-705.4907226562501	-389.0592346191407	121.2483749389649	-705.8041381835939	-358.5508728027344	155.2102813720703	-784.493347167969	-454.1979064941407	108.5349731445313	-768.3892822265627	-229.3204345703126	61.56895828247072	-773.9548950195315	-233.8757019042969	59.96230316162111	-728.0454101562501	-290.8825378417969	39.21129989624024	-680.0587158203126	nan	nan	nan	nan	nan	nan	
1753	8.76	-416.8370056152345	1565.671630859375	-595.6097412109376	-577.0966796875001	1633.4892578125	-701.3876342773439	-538.4013061523439	1613.850341796875	-565.8249511718751	-689.5808715820314	1486.847412109375	-655.2199096679689	-785.5957641601565	1183.836181640625	-673.8973388671876	-566.1342773437501	1381.7138671875	-680.5935058593751	-637.8133544921876	1463.814697265625	-846.9064941406252	-632.6991577148439	1310.76025390625	-1014.498107910156	-584.6061401367189	1322.200073242188	-1018.972412109375	-589.7792968750001	1275.051879882813	-1055.935424804688	-536.1155395507814	1242.648315429688	-1089.276977539063	-557.5678710937501	1173.446899414063	-1039.046264648438	-288.5137634277344	1179.172241210938	-944.3211059570315	-270.2203674316407	1159.828125	-1014.39208984375	-208.9832763671876	1174.351928710938	-910.911315917969	-596.5457763671876	1407.751342773438	-479.1449279785157	-756.2376098632814	1231.1796875	-428.2577514648439	-725.0877075195314	1195.748657226563	-413.7532043457032	-775.3258056640627	1164.943969726563	-429.1239624023439	-787.704284667969	1106.855590820313	-421.812225341797	-781.5021972656252	1089.141967773438	-499.2920227050782	-770.4045410156252	816.0932617187502	-352.4568176269532	-844.0295410156252	834.0471191406252	-354.1221618652344	-793.7457275390627	740.7223510742189	-303.2813415527344	-694.5767822265626	977.8403320312502	-825.5137939453127	-612.3602905273439	987.446716308594	-615.0260620117189	-816.8870849609377	1044.093872070313	-657.9992065429689	-831.419616699219	1010.449279785156	-680.4315795898439	-810.5732421875002	1013.639404296875	-624.7354736328126	-795.6496582031252	686.8713378906251	-830.0411376953127	-768.335144042969	605.5841064453126	-838.3394775390627	-727.7924194335939	607.6076049804689	-856.223083496094	-790.9306640625002	556.8751220703126	-809.1341552734377	-795.8292236328127	443.3384094238282	-782.0232543945315	-709.8226318359376	419.1350708007814	-701.7304077148439	-810.3950195312502	299.2075195312501	-724.0213012695314	-894.7297973632815	310.5852355957032	-706.4085083007814	-864.5949707031252	282.7751464843751	-709.8118286132814	-879.6314086914065	231.909408569336	-637.4276123046876	-1025.825805664063	158.7637176513672	-550.3878173828126	-958.305603027344	152.7066040039063	-493.7634582519532	-1068.924682617188	142.7680053710938	-458.204315185547	-904.5456542968752	45.95433807373048	-592.9843139648439	-935.1895141601565	51.01863098144533	-622.3335571289064	-1005.541748046875	51.13072967529298	-626.1593017578126	-525.3268432617189	755.6912231445314	-535.2006835937501	-460.9218750000001	736.7733154296876	-540.6436157226564	-438.5531311035157	758.3500366210939	-554.5994873046876	-437.2675781250001	655.0491333007814	-557.0225830078126	-401.3143920898439	533.9818115234376	-603.0093994140626	-373.8392944335938	551.9670410156251	-713.9349365234376	-334.9416503906251	342.4739685058594	-657.2468261718751	-407.6026916503907	265.7941284179688	-668.8099975585939	-360.7922668457032	262.5616149902344	-664.9480590820314	-335.1979064941407	225.619857788086	-705.3763427734376	-389.0117187500001	121.9176254272461	-705.1318359375001	-358.4820251464844	155.4601440429688	-784.150573730469	-454.2815551757814	108.7369537353516	-768.1135864257815	-229.3448638916016	61.56227493286134	-773.7412719726565	-233.8399047851563	60.07405471801759	-727.7641601562501	-290.8958435058594	39.11717987060548	-679.8117065429689	nan	nan	nan	nan	nan	nan	
